<svg xmlns="http://www.w3.org/2000/svg" width="30.724" height="31.714" viewBox="0 0 30.724 31.714">
    <defs>
        <style>
            .cls-1{fill:url(#linear-gradient)}.cls-2{fill:#e3651f}
        </style>
        <linearGradient id="linear-gradient" x2="1.249" y1=".5" y2=".5" gradientUnits="objectBoundingBox">
            <stop offset="0" stop-color="#dd581c"/>
            <stop offset=".482" stop-color="#de5a1c"/>
            <stop offset="1" stop-color="#f9922c"/>
        </linearGradient>
    </defs>
    <g id="calendar-day-15">
        <g id="Group_16" data-name="Group 16">
            <path id="Path_46" d="M28.206 2.751v1.594A2.939 2.939 0 0 1 25.3 7.281h-.149a2.95 2.95 0 0 1-2.923-2.936V2.54h-3.186v1.805a2.949 2.949 0 0 1-2.923 2.936h-.147a2.939 2.939 0 0 1-2.912-2.936V2.54H9.825v1.805a2.913 2.913 0 0 1-2.88 2.936H6.8a2.928 2.928 0 0 1-2.9-2.936V2.776A4.648 4.648 0 0 0 .716 7.211v20.78a4.637 4.637 0 0 0 4.641 4.652h21.448a4.632 4.632 0 0 0 4.635-4.652V7.211a4.675 4.675 0 0 0-3.234-4.46zm.933 24.811a2.7 2.7 0 0 1-2.681 2.71H5.708a2.7 2.7 0 0 1-2.685-2.71V12.8a1.817 1.817 0 0 1 1.827-1.824h22.467A1.813 1.813 0 0 1 29.14 12.8v14.762z" class="cls-1" data-name="Path 46" transform="translate(-.716 -.929)"/>
            <path id="Path_47" d="M8.7 4.628h.135a1.369 1.369 0 0 0 1.05-.474 1.354 1.354 0 0 0 .333-.9V1.373A1.383 1.383 0 0 0 9.82.4V.393v.006A1.376 1.376 0 0 0 8.834 0H8.7a1.378 1.378 0 0 0-.981.4h-.01a1.382 1.382 0 0 0-.405.975v1.883a1.361 1.361 0 0 0 .341.9 1.385 1.385 0 0 0 1.055.47z" class="cls-1" data-name="Path 47" transform="translate(-3.124 -.001)"/>
            <path id="Path_48" d="M21.16 4.407h.011s.011-.005.015 0a1.384 1.384 0 0 0 .768.22h.135a1.368 1.368 0 0 0 .658-.155h.006c.006 0 0 0 0-.006a1.377 1.377 0 0 0 .7-1.213v-1.88A1.381 1.381 0 0 0 22.92.264V.258v.011A1.365 1.365 0 0 0 22.089 0h-.135a1.376 1.376 0 0 0-.934.35S21 .351 21 .354a1.389 1.389 0 0 0-.459 1.02V3.26a1.4 1.4 0 0 0 .619 1.147z" class="cls-1" data-name="Path 48" transform="translate(-6.692 -.001)"/>
            <path id="Path_49" d="M35.237 4.628h.135a1.4 1.4 0 0 0 1.064-.474 1.366 1.366 0 0 0 .347-.9V1.373a1.4 1.4 0 0 0-.732-1.22h-.011A.59.59 0 0 0 35.933.1l-.018-.01-.026-.01-.039-.014-.02-.007c-.014-.005-.03 0-.044 0A1.388 1.388 0 0 0 35.373 0h-.135a1.33 1.33 0 0 0-.2.006 1.373 1.373 0 0 0-1.171 1.365v1.887a1.357 1.357 0 0 0 1.37 1.37z" class="cls-1" data-name="Path 49" transform="translate(-10.279)"/>
            <g id="Group_218" data-name="Group 218" transform="translate(10.595 13.394)">
                <path id="Path_202" d="M432.279 481.3a4.706 4.706 0 0 1 3.333 1.337 4.384 4.384 0 0 1 1.281 3.239 4.456 4.456 0 0 1-1.337 3.314 5.279 5.279 0 0 1-6.892 0 4.386 4.386 0 0 1-1.317-3.314 4.721 4.721 0 0 1 .772-2.655l4.1-6.2h2.981zm-.169 2.448a2.138 2.138 0 1 0 0 4.274 2.138 2.138 0 1 0 0-4.274z" class="cls-2" data-name="Path 202" transform="translate(-427.346 -477.023)"/>
            </g>
        </g>
    </g>
</svg>
