<svg xmlns="http://www.w3.org/2000/svg" width="49.647" height="40.521" viewBox="0 0 49.647 40.521">
    <defs>
        <style>
            .cls-1{stroke:rgba(0,0,0,0);fill:url(#linear-gradient)}
        </style>
        <linearGradient id="linear-gradient" x2="1.249" y1=".5" y2=".5" gradientUnits="objectBoundingBox">
            <stop offset="0" stop-color="#dd581c"/>
            <stop offset=".482" stop-color="#de5a1c"/>
            <stop offset="1" stop-color="#f9922c"/>
        </linearGradient>
    </defs>
    <g id="Group_726" data-name="Group 726" transform="translate(-201.049 -535.638)">
        <path id="Path_1173" d="M209.109 557.393l13.842-13.908a3.424 3.424 0 0 0-1.747-.159c-1-.02-1.717-.419-1.762-1.45-.045-1.051.663-1.525 1.656-1.535 1.883-.023 3.769-.02 5.652-.008a1.5 1.5 0 0 1 1.6 1.634c.053 1.84.045 3.683.005 5.523-.023.968-.5 1.674-1.568 1.649s-1.482-.7-1.467-1.707c.01-.555 0-1.112 0-1.739-.562.1-.792.544-1.1.852q-6.765 6.773-13.512 13.565c-.441.441-.822 1.034-1.6.872z" class="cls-1" data-name="Path 1173" transform="translate(11.498 6.34)"/>
        <path id="Path_41" d="M211.356 551.179a5.6 5.6 0 1 1 5.6-5.6 5.6 5.6 0 0 1-5.6 5.6zm0-7.467a1.867 1.867 0 1 0 1.865 1.865 1.864 1.864 0 0 0-1.865-1.865z" class="cls-1" data-name="Path 41" transform="translate(6.396 5.815)"/>
        <path id="Path_42" d="M215.8 558.583a5.6 5.6 0 1 1 5.6-5.6 5.6 5.6 0 0 1-5.6 5.6zm0-7.467a1.867 1.867 0 1 0 1.868 1.868 1.868 1.868 0 0 0-1.868-1.867z" class="cls-1" data-name="Path 42" transform="translate(13.154 17.076)"/>
        <path id="Path_1174" d="M220.607 550.23v3.59c-.658.093-1.006-.391-1.394-.774-1.19-1.172-2.41-2.317-3.537-3.547-.653-.711-1.039-.779-1.77-.035-3.149 3.209-6.373 6.343-9.567 9.509-.572.567-1.157 1.071-2.019.572-.983-.567-1.041-1.626-.1-2.571q3.982-4.012 7.991-8c1.092-1.089 2.165-2.2 3.277-3.264.945-.91 1.6-.9 2.541.013 1.537 1.493 3.055 3.003 4.578 4.507z" class="cls-1" data-name="Path 1174" transform="translate(0 13.502)"/>
        <path id="Path_1175" d="M218.182 537.8c-.353 1.089-.7 2.359-1.185 3.582a1.192 1.192 0 0 1-1.5.678 1.256 1.256 0 0 1-1.049-1.412 27.177 27.177 0 0 1 1.114-3.781 1.213 1.213 0 0 1 1.513-.663c.725.162 1.009.714 1.107 1.596z" class="cls-1" data-name="Path 1175" transform="translate(19.577)"/>
        <path id="Path_1176" d="M221.3 538.111a1.361 1.361 0 0 1 1.132.756 1.2 1.2 0 0 1-.154 1.543 13.368 13.368 0 0 1-3.169 2.367 1.23 1.23 0 0 1-1.5-.355 1.341 1.341 0 0 1-.26-1.439 10.4 10.4 0 0 1 3.951-2.872z" class="cls-1" data-name="Path 1176" transform="translate(23.896 2.974)"/>
        <path id="Path_1177" d="M222.658 545.658c-.945-.209-2.072-.429-3.181-.708a1.248 1.248 0 0 1-.968-1.561 1.222 1.222 0 0 1 1.344-1.1 13.284 13.284 0 0 1 3.731.749 1.193 1.193 0 0 1 .784 1.543c-.197.755-.759 1.085-1.71 1.077z" class="cls-1" data-name="Path 1177" transform="translate(25.754 9.324)"/>
    </g>
</svg>
