<svg xmlns="http://www.w3.org/2000/svg" id="Group_7808" width="38" height="38" data-name="Group 7808" viewBox="0 0 38 38">
    <defs>
        <style>
            .cls-1{fill:#edf7f1}.cls-2{fill:#50bb7d}.cls-3{fill:#fff}.cls-4{fill:#e3f2ea}
        </style>
    </defs>
    <rect id="Rectangle_1667" width="38" height="38" class="cls-1" data-name="Rectangle 1667" rx="4"/>
    <g id="Group_8041" data-name="Group 8041" transform="translate(0 -3)">
        <g id="Group_8042" data-name="Group 8042" transform="translate(2 4)">
            <path id="Subtraction_5" d="M-1687.357-1717h-17.286a2.359 2.359 0 0 1-2.357-2.356v-7.856a2.359 2.359 0 0 1 2.357-2.356h12.95v2.412a1.761 1.761 0 0 0 1.76 1.759 1.761 1.761 0 0 0 1.759-1.759v-2.412h.817a2.359 2.359 0 0 1 2.357 2.356v7.856a2.359 2.359 0 0 1-2.357 2.356z" class="cls-2" data-name="Subtraction 5" transform="translate(1713 1742)"/>
            <path id="Path_13182" d="M12.878 6.4a.88.88 0 0 0 .625-.255L14.637 5v4.916a.88.88 0 0 0 1.76 0V5l1.135 1.135a.88.88 0 0 0 1.241-1.24l-2.64-2.641a.88.88 0 0 0-1.249 0l-2.64 2.639a.88.88 0 0 0 .633 1.5z" class="cls-2" data-name="Path 13182" transform="translate(7.516 4.006)"/>
            <path id="Path_13181" d="M76.727 1.407a.137.137 0 0 0-.1-.04h-.754a1.526 1.526 0 0 0-.282-.635h1.028a.136.136 0 0 0 .141-.141v-.45A.136.136 0 0 0 76.617 0h-3.67a.136.136 0 0 0-.141.141v.587a.143.143 0 0 0 .141.141h.64q.931 0 1.182.5h-1.822a.136.136 0 0 0-.141.141v.45a.136.136 0 0 0 .141.141h1.883a.862.862 0 0 1-.452.551 1.99 1.99 0 0 1-.937.19h-.494a.143.143 0 0 0-.141.141v.56a.132.132 0 0 0 .04.1q.847.9 2.2 2.518a.13.13 0 0 0 .11.053h.86a.128.128 0 0 0 .128-.079.121.121 0 0 0-.018-.15Q74.835 4.4 74.1 3.617a2.237 2.237 0 0 0 1.217-.485 1.649 1.649 0 0 0 .568-1.032h.741a.136.136 0 0 0 .141-.141v-.45a.137.137 0 0 0-.04-.102z" class="cls-3" data-name="Path 13181" transform="translate(-57.806 15.571)"/>
            <rect id="Rectangle_5633" width="3" height="1" class="cls-4" data-name="Rectangle 5633" rx=".5" transform="translate(9 18)"/>
            <rect id="Rectangle_5634" width="3" height="1" class="cls-4" data-name="Rectangle 5634" rx=".5" transform="translate(22 18)"/>
        </g>
    </g>
</svg>
